<svg width="14" height="11" viewBox="0 0 14 11" fill="none" xmlns="http://www.w3.org/2000/svg">
<path d="M0.640625 5.59928C1.48996 2.89462 4.01729 0.932617 7.00195 0.932617C9.98729 0.932617 12.514 2.89462 13.3633 5.59928C12.514 8.30395 9.98729 10.266 7.00195 10.266C4.01729 10.266 1.48996 8.30395 0.640625 5.59928Z" stroke="#8D8E92" stroke-linecap="round" stroke-linejoin="round"/>
<path d="M8.4142 7.01381C8.78927 6.63874 9 6.13001 9 5.59961C9 5.06921 8.78927 4.56048 8.4142 4.1854C8.03913 3.81032 7.5304 3.59961 7 3.59961C6.4696 3.59961 5.96087 3.81032 5.58579 4.1854C5.21071 4.56048 5 5.06921 5 5.59961C5 6.13001 5.21071 6.63874 5.58579 7.01381C5.96087 7.38888 6.4696 7.59961 7 7.59961C7.5304 7.59961 8.03913 7.38888 8.4142 7.01381Z" stroke="#8D8E92" stroke-linecap="round" stroke-linejoin="round"/>
</svg>
